<svg viewBox="0 0 400 200" xmlns="http://www.w3.org/2000/svg">
  <!-- Yellow leaf cluster -->
  <g id="leaves">
    <!-- Top left small leaf -->
    <path d="M 80 60 Q 95 45 100 70 Q 85 75 80 60" fill="#FFC107" stroke="none"/>
    <!-- Top middle small leaf -->
    <path d="M 130 45 Q 150 35 155 65 Q 135 75 130 45" fill="#FFB300" stroke="none"/>
    
    <!-- Middle left leaves -->
    <path d="M 60 110 Q 75 95 95 115 Q 80 130 60 110" fill="#FFC107" stroke="none"/>
    <path d="M 110 100 Q 135 80 155 110 Q 130 135 110 100" fill="#FFC107" stroke="none"/>
    
    <!-- Center large leaf -->
    <path d="M 100 140 Q 130 110 160 150 Q 125 175 100 140" fill="#FFD54F" stroke="none"/>
    
    <!-- Bottom leaves -->
    <path d="M 70 170 Q 90 155 110 180 Q 90 190 70 170" fill="#FFC107" stroke="none"/>
    <path d="M 130 175 Q 155 160 175 185 Q 155 200 130 175" fill="#FFB300" stroke="none"/>
  </g>
  
  <!-- Text "arsworld" -->
  <text x="210" y="120" font-family="Arial, sans-serif" font-size="72" font-weight="bold" fill="#000000">
    arsworld
  </text>
</svg>